<svg width="621.5" height="48.4" viewBox="0 0 565 44" fill="none" xmlns="http://www.w3.org/2000/svg">
      <path
        d="M0 35.3104V0.310364H30V5.31036H35V15.3104H30V20.3104H35V30.3104H30V35.3104H0ZM10 15.3104H25V5.31036H10V15.3104ZM10 30.3104H25V20.3104H10V30.3104ZM45 35.3104V30.3104H40V25.3104H45V20.3104H65V15.3104H45V10.3104H70V15.3104H75V35.3104H45ZM50 30.3104H65V25.3104H50V30.3104ZM95 35.3104V15.3104H85V10.3104H95V0.310364H105V10.3104H115V15.3104H105V35.3104H95ZM135 35.3104V15.3104H125V10.3104H135V0.310364H145V10.3104H155V15.3104H145V35.3104H135ZM165 35.3104V30.3104H175V5.31036H170V0.310364H185V30.3104H195V35.3104H165ZM205 35.3104V30.3104H200V15.3104H205V10.3104H230V15.3104H235V25.3104H210V30.3104H230V35.3104H205ZM210 20.3104H225V15.3104H210V20.3104ZM285 35.3104V30.3104H280V25.3104H290V30.3104H305V20.3104H285V15.3104H280V5.31036H285V0.310364H310V5.31036H315V10.3104H305V5.31036H290V15.3104H310V20.3104H315V30.3104H310V35.3104H285ZM335 35.3104V15.3104H325V10.3104H335V0.310364H345V10.3104H355V15.3104H345V35.3104H335ZM375 15.3104H380V20.3104H375V35.3104H365V10.3104H375V15.3104ZM395 10.3104V15.3104H380V10.3104H395ZM415 5.31036V0.310364H425V5.31036H415ZM405 35.3104V30.3104H415V15.3104H410V10.3104H425V30.3104H435V35.3104H405ZM440 35.3104V10.3104H470V15.3104H475V35.3104H465V15.3104H450V35.3104H440ZM485 40.3104V35.3104H505V30.3104H485V25.3104H480V15.3104H485V10.3104H515V35.3104H510V40.3104H485ZM490 25.3104H505V15.3104H490V25.3104Z"
        fill="#F41414"
      />
      <path
        d="M3 37.1379V2.13794H33V7.13794H38V17.1379H33V22.1379H38V32.1379H33V37.1379H3ZM13 17.1379H28V7.13794H13V17.1379ZM13 32.1379H28V22.1379H13V32.1379ZM48 37.1379V32.1379H43V27.1379H48V22.1379H68V17.1379H48V12.1379H73V17.1379H78V37.1379H48ZM53 32.1379H68V27.1379H53V32.1379ZM98 37.1379V17.1379H88V12.1379H98V2.13794H108V12.1379H118V17.1379H108V37.1379H98ZM138 37.1379V17.1379H128V12.1379H138V2.13794H148V12.1379H158V17.1379H148V37.1379H138ZM168 37.1379V32.1379H178V7.13794H173V2.13794H188V32.1379H198V37.1379H168ZM208 37.1379V32.1379H203V17.1379H208V12.1379H233V17.1379H238V27.1379H213V32.1379H233V37.1379H208ZM213 22.1379H228V17.1379H213V22.1379ZM288 37.1379V32.1379H283V27.1379H293V32.1379H308V22.1379H288V17.1379H283V7.13794H288V2.13794H313V7.13794H318V12.1379H308V7.13794H293V17.1379H313V22.1379H318V32.1379H313V37.1379H288ZM338 37.1379V17.1379H328V12.1379H338V2.13794H348V12.1379H358V17.1379H348V37.1379H338ZM378 17.1379H383V22.1379H378V37.1379H368V12.1379H378V17.1379ZM398 12.1379V17.1379H383V12.1379H398ZM418 7.13794V2.13794H428V7.13794H418ZM408 37.1379V32.1379H418V17.1379H413V12.1379H428V32.1379H438V37.1379H408ZM443 37.1379V12.1379H473V17.1379H478V37.1379H468V17.1379H453V37.1379H443ZM488 42.1379V37.1379H508V32.1379H488V27.1379H483V17.1379H488V12.1379H518V37.1379H513V42.1379H488ZM493 27.1379H508V17.1379H493V27.1379Z"
        fill="#14F438"
        fill-opacity="0.8"
      />
      <path
        d="M6 38.9655V3.96552H36V8.96551H41V18.9655H36V23.9655H41V33.9655H36V38.9655H6ZM16 18.9655H31V8.96551H16V18.9655ZM16 33.9655H31V23.9655H16V33.9655ZM51 38.9655V33.9655H46V28.9655H51V23.9655H71V18.9655H51V13.9655H76V18.9655H81V38.9655H51ZM56 33.9655H71V28.9655H56V33.9655ZM101 38.9655V18.9655H91V13.9655H101V3.96552H111V13.9655H121V18.9655H111V38.9655H101ZM141 38.9655V18.9655H131V13.9655H141V3.96552H151V13.9655H161V18.9655H151V38.9655H141ZM171 38.9655V33.9655H181V8.96551H176V3.96552H191V33.9655H201V38.9655H171ZM211 38.9655V33.9655H206V18.9655H211V13.9655H236V18.9655H241V28.9655H216V33.9655H236V38.9655H211ZM216 23.9655H231V18.9655H216V23.9655ZM291 38.9655V33.9655H286V28.9655H296V33.9655H311V23.9655H291V18.9655H286V8.96551H291V3.96552H316V8.96551H321V13.9655H311V8.96551H296V18.9655H316V23.9655H321V33.9655H316V38.9655H291ZM341 38.9655V18.9655H331V13.9655H341V3.96552H351V13.9655H361V18.9655H351V38.9655H341ZM381 18.9655H386V23.9655H381V38.9655H371V13.9655H381V18.9655ZM401 13.9655V18.9655H386V13.9655H401ZM421 8.96551V3.96552H431V8.96551H421ZM411 38.9655V33.9655H421V18.9655H416V13.9655H431V33.9655H441V38.9655H411ZM446 38.9655V13.9655H476V18.9655H481V38.9655H471V18.9655H456V38.9655H446ZM491 43.9655V38.9655H511V33.9655H491V28.9655H486V18.9655H491V13.9655H521V38.9655H516V43.9655H491ZM496 28.9655H511V18.9655H496V28.9655Z"
        fill="#0359FF"
        fill-opacity="0.75"
      />
</svg>